<svg width="14" height="9" viewBox="0 0 14 9" fill="none" xmlns="http://www.w3.org/2000/svg">
<path id="Vector" fill-rule="evenodd" clip-rule="evenodd" d="M-0.00088501 4.50001C-0.00088501 4.3674 0.0517934 4.24022 0.145562 4.14645C0.23933 4.05268 0.366507 4.00001 0.499115 4.00001H12.2921L9.14511 0.854006C9.05123 0.760119 8.99848 0.632782 8.99848 0.500006C8.99848 0.36723 9.05123 0.239893 9.14511 0.146006C9.239 0.0521192 9.36634 -0.000625607 9.49911 -0.00062561C9.63189 -0.000625613 9.75923 0.0521192 9.85312 0.146006L13.8531 4.14601C13.8997 4.19245 13.9366 4.24763 13.9618 4.30837C13.987 4.36912 14 4.43424 14 4.50001C14 4.56577 13.987 4.63089 13.9618 4.69164C13.9366 4.75238 13.8997 4.80756 13.8531 4.85401L9.85312 8.85401C9.75923 8.94789 9.63189 9.00064 9.49911 9.00064C9.36634 9.00064 9.239 8.94789 9.14511 8.85401C9.05123 8.76012 8.99848 8.63278 8.99848 8.50001C8.99848 8.36723 9.05123 8.23989 9.14511 8.14601L12.2921 5.00001H0.499115C0.366507 5.00001 0.23933 4.94733 0.145562 4.85356C0.0517934 4.75979 -0.00088501 4.63261 -0.00088501 4.50001V4.50001Z" fill="black"/>
</svg>
