<svg xmlns="http://www.w3.org/2000/svg" height="1200" width="1600" version="1.1" xmlns:xlink="http://www.w3.org/1999/xlink" xmlns:svgjs="http://svgjs.com/svgjs"><rect fill="#cafacc" width="1600" height="1200"></rect><g><path d="M787.14 572.73C773.43 501.59 705.71 435.59 630.29 421.88 671.43 466.45 689.43 514.45 692 572.73 644.86 519.59 582.29 479.31 514.57 459.59 547.14 509.31 564.29 568.45 562.57 628.45 528.29 584.73 474.29 557.31 419.43 553.88 446 575.31 464 607.02 469.14 640.45 428.86 614.73 382.57 599.31 334.57 595.88 361.14 614.73 382.57 642.16 393.71 672.16 361.14 663.59 326.86 663.59 294.29 671.31 311.43 682.45 329.43 693.59 346.57 704.73 321.71 706.45 297.71 710.73 273.71 719.31 294.29 729.59 314.86 739.88 336.29 751.02 311.43 759.59 287.43 769.02 263.43 779.31 304.57 789.59 343.14 810.16 374.86 838.45 323.43 847.88 274.57 870.16 234.29 903.59 267.71 894.16 303.71 895.02 336.29 905.31 306.29 918.16 278.86 937.02 255.71 960.16 282.29 955.88 308.86 955.88 335.43 960.16 306.29 979.88 284 988.45 265.14 1017.59L362.86 1016.73H1236.29C1332.29 1017.59 1236.29 1016.73 1332.29 1017.59 1312.57 988.45 1292 979.88 1263.71 960.16 1290.29 955.88 1316.86 955.88 1343.43 960.16 1320.29 937.02 1292.86 918.16 1262.86 905.31 1296.29 895.02 1331.43 895.02 1364.86 903.59 1324.57 870.16 1275.71 847.02 1224.29 838.45 1256 810.16 1294.57 789.59 1335.71 779.31 1311.71 768.16 1287.71 758.73 1262.86 751.02 1283.43 740.73 1304 730.45 1325.43 719.31 1302.29 711.59 1277.43 706.45 1252.57 704.73 1269.71 693.59 1287.71 682.45 1304.86 671.31 1272.29 663.59 1238 664.45 1205.43 672.16 1216.57 641.31 1238 614.73 1264.57 595.88 1217.43 599.31 1170.29 614.73 1130 640.45 1135.14 607.02 1153.14 575.31 1179.71 553.88 1124 557.31 1070.86 585.59 1036.57 628.45 1034.86 569.31 1052 509.31 1084.57 459.59 1016 479.31 962 527.31 914.86 580.45 940.57 536.73 966.29 451.02 1002.29 416.73 909.71 442.45 849.71 505.02 785.43 577.02" fill="#d8e1d9" opacity="1" stroke-width="1.5" stroke="none"></path></g><g><path d="M1311.56 214.41L1359.75 146.54" stroke="#000000" stroke-width="1.5" stroke-linecap="round" stroke-linejoin="round" opacity="1" fill="none"></path><path d="M1385.86 316.03L1469 318.04" stroke="#000000" stroke-width="1.5" stroke-linecap="round" stroke-linejoin="round" opacity="1" fill="none"></path><path d="M1363.77 259.8L1427.63 209.19" stroke="#000000" stroke-width="1.5" stroke-linecap="round" stroke-linejoin="round" opacity="1" fill="none"></path></g><g><path d="M689.9 475.36L792.26 612.71C792.73 613.39 793 614.12 793 615 793 615.8 792.73 616.61 792.26 617.21 791.79 617.89 791.12 618.42 790.38 618.69 789.57 618.89 788.77 618.89 787.96 618.69L624.69 566.97C617.9 565.16 611.52 562.14 605.81 558.11 593.05 548.97 584.39 535.27 581.5 519.89 578.68 504.51 581.9 488.59 590.5 475.5 596.01 467.37 603.39 460.65 612.06 456.09 620.72 451.45 630.33 449.03 640.2 449.03 650.01 449.03 659.61 451.45 668.28 456.02 677.01 460.65 684.4 467.3 689.9 475.36L689.9 475.36Z" fill="#007d0b" opacity="1" stroke-width="1.5" stroke="none"></path><path d="M908.05 475.36L804.89 613.92C804.42 614.46 804.22 615.2 804.22 615.87 804.15 616.61 804.42 617.28 804.82 617.89 805.22 618.49 805.83 618.89 806.5 619.16 807.17 619.36 807.91 619.36 808.58 619.16L973.27 566.97C980.05 565.16 986.5 562.14 992.21 558.11 1004.97 548.97 1013.64 535.27 1016.52 519.89 1019.34 504.44 1016.12 488.53 1007.52 475.43 1002.02 467.3 994.63 460.65 985.96 456.09 977.3 451.45 967.63 449.03 957.82 449.03 948.02 449.03 938.34 451.45 929.68 456.02 921.02 460.59 913.63 467.24 908.12 475.36L908.05 475.36Z" fill="#007d0b" opacity="1" stroke-width="1.5" stroke="none"></path><path d="M799.38 450.65V801.38" stroke="#000000" stroke-width="1.5" stroke-linecap="round" stroke-linejoin="round" opacity="1" fill="none"></path><path d="M930.69 190.25L869.37 285.49 804.22 184.27C803.68 183.47 803.01 182.79 802.13 182.32 801.33 181.92 800.39 181.65 799.45 181.65 798.44 181.65 797.5 181.92 796.69 182.32 795.82 182.79 795.15 183.47 794.61 184.27L729.46 285.49 668.14 190.25C667.54 189.24 666.6 188.44 665.45 188.03 664.38 187.56 663.17 187.5 662.03 187.76 660.89 188.03 659.81 188.64 659.07 189.58 658.27 190.45 657.8 191.59 657.66 192.73 652.22 250.97 644.9 448.9 799.38 448.9 953.86 448.9 946.61 250.97 941.1 192.73 941.03 191.59 940.49 190.45 939.75 189.58 938.95 188.7 937.94 188.03 936.8 187.76 935.66 187.5 934.45 187.56 933.37 188.03 932.23 188.44 931.29 189.24 930.69 190.25V190.25Z" fill="#9dfdab" opacity="1" stroke-width="1.5" stroke="none"></path><path d="M720.53 323.5L799.38 448.9 874.54 323.5" stroke="#000000" stroke-width="1.5" stroke-linecap="round" stroke-linejoin="round" opacity="1" fill="none"></path><path d="M799.38 448.9V263.79" stroke="#000000" stroke-width="1.5" stroke-linecap="round" stroke-linejoin="round" opacity="1" fill="none"></path><path d="M655.45 517.34L799.38 622.25 943.31 517.34" stroke="#000000" stroke-width="1.5" stroke-linecap="round" stroke-linejoin="round" opacity="1" fill="none"></path></g><g><path d="M1282.87 940.16C1278.66 931.29 1273.83 922.52 1271.24 913.08 1265.25 891.15 1272.1 868.02 1275.87 845.58 1282.22 808.04 1280.3 769.56 1270.21 732.86L1270.21 732.83 1269.27 730.88 1269.27 730.86C1239.15 639.92 1156.66 639.96 1126.67 730.93 1126.65 730.95 1126.65 730.96 1126.65 731L1144.12 895.26C1145.54 908.6 1143.97 922.1 1139.5 934.76 1135.01 947.42 1127.76 958.92 1118.25 968.41 1112.91 973.76 1107.63 979.2 1102.94 983.9 1102.92 983.92 1102.92 983.92 1102.9 983.93 1082.29 1020.7 1305.37 987.74 1282.87 940.16ZM1214.54 895.09C1215.97 908.38 1214.4 921.81 1209.94 934.42 1209.94 934.46 1209.93 934.49 1209.89 934.51 1209.86 934.52 1209.82 934.54 1209.81 934.54 1209.77 934.54 1209.74 934.54 1209.7 934.52 1209.67 934.51 1209.65 934.47 1209.64 934.46 1206.04 927.67 1203.09 920.58 1200.83 913.25 1194.83 891.32 1201.69 868.19 1205.46 845.75 1206.26 841.04 1206.91 836.32 1207.44 831.58 1207.44 831.54 1207.46 831.49 1207.49 831.46 1207.53 831.42 1207.58 831.41 1207.61 831.41 1207.67 831.41 1207.7 831.42 1207.73 831.46 1207.77 831.49 1207.79 831.54 1207.79 831.58L1214.54 895.09Z" fill="#fd9da6" opacity="1" stroke-width="1.5" stroke="none"></path><path d="M1201.82 949.22C1201.86 949.19 1201.89 949.19 1201.94 949.19 1201.98 949.19 1202.01 949.21 1202.05 949.22 1202.08 949.26 1202.1 949.29 1202.1 949.33 1202.1 949.36 1202.1 949.41 1202.08 949.45 1177.94 989.36 1158.27 990.24 1158 1004.03 1158 1004.06 1158 1004.1 1157.98 1004.11 1157.97 1004.15 1157.95 1004.17 1157.91 1004.18L1157.49 1004.39C1139.94 1013.16 1120.58 1017.75 1100.95 1017.75 1097.46 1017.75 1094.1 1016.36 1091.63 1013.88 1089.15 1011.41 1087.76 1008.05 1087.76 1004.56 1087.83 1001.08 1089.25 997.76 1091.7 995.31L1102.85 983.98C1102.89 983.97 1102.9 983.95 1102.92 983.93 1102.95 983.93 1102.97 983.93 1103.01 983.93 1143.68 989.02 1183.42 963.39 1201.82 949.22Z" fill="#000000" opacity="1" stroke-width="1.5" stroke="none"></path><path d="M1282.96 940.38C1282.96 940.37 1282.94 940.35 1282.91 940.33 1282.89 940.32 1282.87 940.3 1282.84 940.3 1282.82 940.28 1282.79 940.28 1282.75 940.3 1282.74 940.3 1282.72 940.32 1282.69 940.33 1279.29 943.47 1227.32 990.73 1173.5 984 1173.49 984 1173.45 984 1173.44 984.02 1173.4 984.02 1173.38 984.04 1173.37 984.05 1168.76 988.66 1163.82 992.46 1161.1 995.19 1154.88 1001.73 1157.18 1018.33 1171.36 1017.73 1191 1017.73 1210.35 1013.16 1227.9 1004.37V1004.37L1263.77 986.37C1263.79 986.35 1263.82 986.35 1263.86 986.35 1263.89 986.35 1263.91 986.37 1263.94 986.38 1263.96 986.4 1263.98 986.42 1263.99 986.45 1264.01 986.47 1264.01 986.5 1264.01 986.54 1262.45 996.97 1260.31 1007.32 1257.59 1017.53 1257.59 1017.55 1257.59 1017.58 1257.59 1017.61 1257.6 1017.63 1257.6 1017.65 1257.62 1017.68 1257.64 1017.7 1257.66 1017.72 1257.69 1017.72 1257.71 1017.73 1257.74 1017.73 1257.76 1017.73H1283.8C1283.83 1017.73 1283.87 1017.73 1283.9 1017.7 1283.94 1017.68 1283.95 1017.65 1283.97 1017.61 1289.78 994.2 1294.54 975.04 1288.56 954.52 1286.97 949.7 1285.1 944.99 1282.96 940.38V940.38Z" fill="#000000" opacity="1" stroke-width="1.5" stroke="none"></path><path d="M1288.89 537.37L1270.97 492.88C1233.79 478.42 1211.86 479.53 1171.88 492.83L1171.36 494.37 1104.94 730.79C1104.94 730.81 1104.92 730.83 1104.94 730.84 1104.94 730.88 1104.94 730.89 1104.96 730.91 1104.98 730.93 1104.99 730.95 1105.01 730.95 1105.03 730.96 1105.04 730.96 1105.06 730.96H1239.38L1269.27 730.88 1295.57 626.29C1302.88 596.68 1300.54 565.54 1288.89 537.37Z" fill="#05941a" opacity="1" stroke-width="1.5" stroke="none"></path><path d="M1297.62 568.72H1152.17" stroke="#03440d" stroke-width="1.5" stroke-linecap="round" stroke-linejoin="round" opacity="1" fill="none"></path><path d="M1173.42 984C1184.88 975.23 1195.12 961.04 1202.54 948.66 1205.3 944.07 1207.77 939.32 1209.94 934.44" stroke="#000000" stroke-width="1.5" stroke-linecap="round" stroke-linejoin="round" opacity="1" fill="none"></path><path d="M1207.68 494.54L1221.1 730.76" stroke="#03440d" stroke-width="1.5" stroke-linecap="round" stroke-linejoin="round" opacity="1" fill="none"></path><path d="M1228.93 494.54L1256.15 730.67" stroke="#03440d" stroke-width="1.5" stroke-linecap="round" stroke-linejoin="round" opacity="1" fill="none"></path><path d="M1262.57 493.96L1282.89 670.14" stroke="#03440d" stroke-width="1.5" stroke-linecap="round" stroke-linejoin="round" opacity="1" fill="none"></path><path d="M1164.34 521.27H1282.55" stroke="#03440d" stroke-width="1.5" stroke-linecap="round" stroke-linejoin="round" opacity="1" fill="none"></path><path d="M1296.77 616.01H1137.27" stroke="#03440d" stroke-width="1.5" stroke-linecap="round" stroke-linejoin="round" opacity="1" fill="none"></path><path d="M1284.78 663.46H1124.76" stroke="#03440d" stroke-width="1.5" stroke-linecap="round" stroke-linejoin="round" opacity="1" fill="none"></path><path d="M1272.78 710.75H1111.91" stroke="#03440d" stroke-width="1.5" stroke-linecap="round" stroke-linejoin="round" opacity="1" fill="none"></path><path d="M1158.05 729.88L1186.44 630.23" stroke="#03440d" stroke-width="1.5" stroke-linecap="round" stroke-linejoin="round" opacity="1" fill="none"></path><path d="M1124.76 730.96L1192.09 494.54" stroke="#03440d" stroke-width="1.5" stroke-linecap="round" stroke-linejoin="round" opacity="1" fill="none"></path><path d="M1197.23 730.96L1190.04 664.32 1147.89 730.96C1167.17 731.56 1181.61 731.36 1197.23 730.96Z" fill="#000000" opacity="1" stroke-width="1.5" stroke="none"></path><path d="M1207.68 832.21L1197.23 730.96 1178.56 556.05" stroke="#000000" stroke-width="1.5" stroke-linecap="round" stroke-linejoin="round" opacity="1" fill="none"></path><path d="M1077.31 342.75L1079.96 374.02C1077.26 398.72 1067.75 413.1 1048.18 412.82 1041.59 403.23 1034.14 393.81 1024.2 386.61L993.7 364.85C992.98 364.34 992.35 363.69 991.89 362.93 991.41 362.18 991.1 361.34 990.95 360.47 990.81 359.58 990.84 358.69 991.05 357.81 991.25 356.96 991.63 356.13 992.16 355.43 993.28 354.08 994.85 353.19 996.58 352.93 998.31 352.67 1000.08 353.07 1001.53 354.06 1000.83 353.55 1000.23 352.88 999.8 352.12 999.36 351.37 999.07 350.55 998.96 349.67 998.86 348.8 998.93 347.93 999.17 347.09 999.43 346.25 999.84 345.48 1000.39 344.81 1001.36 343.42 1002.84 342.46 1004.5 342.14 1006.16 341.81 1007.89 342.15 1009.29 343.1 1007.75 342.02 1006.67 340.37 1006.3 338.52 1005.92 336.69 1006.26 334.75 1007.24 333.16 1008.3 331.77 1009.86 330.86 1011.57 330.57 1013.29 330.28 1015.05 330.66 1016.49 331.62L1063.47 360.81C1063.55 360.86 1063.6 360.83 1063.6 360.74L1062.75 342.41C1062.93 340.71 1063.71 339.14 1064.92 337.94 1066.14 336.76 1067.73 336.04 1069.43 335.9 1071.36 335.87 1073.23 336.55 1074.69 337.82 1076.14 339.07 1077.07 340.83 1077.31 342.75Z" fill="#fd9da6" opacity="1" stroke-width="1.5" stroke="none"></path><path d="M1001.53 354.06L1026.6 372.05" stroke="#000000" stroke-width="1.5" stroke-linecap="round" stroke-linejoin="round" opacity="1" fill="none"></path><path d="M1051.61 370.16C1047.7 368.54 1043.46 367.87 1039.22 368.19 1035.01 368.52 1030.91 369.84 1027.28 372.05" stroke="#000000" stroke-width="1.5" stroke-linecap="round" stroke-linejoin="round" opacity="1" fill="none"></path><path d="M1009.29 343.1L1034.82 359.2" stroke="#000000" stroke-width="1.5" stroke-linecap="round" stroke-linejoin="round" opacity="1" fill="none"></path><path d="M1242.46 323.05C1256.75 323.05 1268.33 311.47 1268.33 297.18 1268.33 282.89 1256.75 271.31 1242.46 271.31 1228.17 271.31 1216.59 282.89 1216.59 297.18 1216.59 311.47 1228.17 323.05 1242.46 323.05Z" fill="#000000" opacity="1" stroke-width="1.5" stroke="none"></path><path d="M1336.51 434.58L1289.06 350.12C1278.51 328.79 1260.4 312.14 1238.26 303.38 1232.61 300.56 1215.19 309.59 1202.29 309.59 1188.75 309.71 1181.25 301.46 1170.06 308.21 1147.99 321.54 1132.58 345.68 1132.13 372.39 1132.06 375.63 1132.2 378.85 1132.54 382.07L1123.08 440.58C1123.07 440.66 1123.02 440.68 1122.96 440.59L1079.96 374.02 1048.18 412.82 1100.26 495.91C1103.55 502.39 1108.59 507.85 1114.78 511.66 1120.98 515.48 1128.12 517.48 1135.39 517.5 1144.59 517.43 1153.49 514.24 1160.62 508.44 1165.4 504.63 1169.29 499.84 1172 494.37H1174.1L1270.97 492.88 1271.07 476.21C1271.07 476.16 1271.09 476.11 1271.12 476.09 1271.16 476.06 1271.21 476.04 1271.24 476.04H1309.45C1334.8 476.21 1348.16 457.54 1336.51 434.58Z" fill="#639267" opacity="1" stroke-width="1.5" stroke="none"></path><path d="M1238.26 303.38L1193.89 338.86C1193.86 338.9 1193.82 338.92 1193.77 338.9 1193.72 338.9 1193.69 338.88 1193.65 338.85L1178.35 318.94 1170.08 308.21C1173.88 305.95 1177.86 304 1182 302.41 1182.02 302.39 1182.05 302.37 1182.07 302.34 1182.09 302.32 1182.1 302.29 1182.1 302.25 1182.1 302.22 1182.1 302.18 1182.09 302.17 1182.07 302.13 1182.04 302.12 1182.02 302.1 1179.64 300.85 1177.39 299.37 1175.3 297.7 1170.95 294.12 1167.42 289.63 1165.01 284.54 1162.57 279.45 1161.29 273.9 1161.25 268.26 1161.22 262.63 1162.44 257.04 1164.8 251.92 1167.17 246.81 1170.63 242.27 1174.94 238.66 1181.64 233.01 1190.26 233.11 1199.63 233.11 1220.87 233.11 1234.58 246.81 1234.58 268.06 1234.58 276.59 1235.18 284.37 1230.5 290.72 1228.38 293.65 1225.84 296.27 1222.96 298.5 1222.95 298.52 1222.93 298.55 1222.91 298.59 1222.9 298.62 1222.9 298.66 1222.91 298.67 1222.91 298.71 1222.93 298.74 1222.96 298.76 1222.98 298.79 1223.02 298.79 1223.05 298.81 1228.27 299.75 1233.38 301.29 1238.26 303.38V303.38Z" fill="#fd9da6" opacity="1" stroke-width="1.5" stroke="none"></path><path d="M1271.07 476.04L1234.24 475.7 1250.17 493.34C1257.71 493.26 1262.85 493.29 1270.97 492.88L1271.07 476.04Z" fill="#000000" opacity="1" stroke-width="1.5" stroke="none"></path><path d="M1236.29 374.1L1262.44 424.64" stroke="#000000" stroke-width="1.5" stroke-linecap="round" stroke-linejoin="round" opacity="1" fill="none"></path><path d="M1182.34 302.27C1178.01 303.67 1173.88 305.68 1170.08 308.21 1172.48 312.05 1175.25 315.65 1178.35 318.92 1187.4 317.5 1195.69 313.06 1201.89 306.35 1201.14 306.38 1200.4 306.43 1199.63 306.43 1193.63 306.42 1187.71 304.99 1182.34 302.27V302.27Z" fill="#000000" opacity="1" stroke-width="1.5" stroke="none"></path><path d="M1230.5 290.72C1229.15 291.07 1227.74 291.08 1226.37 290.81 1225 290.53 1223.72 289.95 1222.59 289.13 1221.06 287.91 1219.9 286.32 1219.23 284.49 1219.21 284.45 1219.21 284.44 1219.21 284.4 1219.21 284.38 1219.23 284.35 1219.25 284.33 1219.25 284.32 1219.26 284.3 1219.3 284.28 1219.31 284.26 1219.35 284.26 1219.37 284.25 1221.23 284.06 1223.03 283.46 1224.64 282.52 1226.27 281.57 1227.66 280.31 1228.75 278.8 1229.85 277.27 1230.62 275.54 1231 273.71 1231.39 271.88 1231.38 269.98 1230.98 268.16 1230.59 266.33 1229.82 264.6 1228.72 263.09 1227.61 261.58 1226.2 260.31 1224.57 259.37 1222.95 258.45 1221.15 257.86 1219.3 257.68 1217.43 257.49 1215.55 257.69 1213.76 258.28 1213.73 258.28 1213.7 258.28 1213.66 258.28 1208.04 256.75 1201.67 258.36 1195.69 257.78 1185.62 256.92 1177.07 248.48 1174.96 238.74 1174.96 238.71 1174.96 238.68 1174.98 238.66 1174.98 238.62 1174.99 238.59 1175.03 238.57 1181.95 232.85 1190.65 229.7 1199.63 229.66 1206.72 229.65 1213.68 231.6 1219.73 235.32 1225.79 239.04 1230.67 244.35 1233.88 250.69 1237.08 257.01 1238.47 264.1 1237.87 271.18 1237.27 278.25 1234.73 285.02 1230.5 290.72Z" fill="#000000" opacity="1" stroke-width="1.5" stroke="none"></path><path d="M1213.71 258.29C1211.98 258.5 1210.35 259.2 1208.98 260.28 1207.61 261.38 1206.57 262.82 1205.97 264.46" stroke="#000000" stroke-width="1.5" stroke-linecap="round" stroke-linejoin="round" opacity="1" fill="none"></path><path d="M1182.84 263.77C1184.37 263.77 1185.58 262.54 1185.58 261.03 1185.58 259.51 1184.37 258.29 1182.84 258.29 1181.33 258.29 1180.1 259.51 1180.1 261.03 1180.1 262.54 1181.33 263.77 1182.84 263.77Z" fill="#000000" opacity="1" stroke-width="1.5" stroke="none"></path><path d="M1171.36 263.77C1172.89 263.77 1174.1 262.54 1174.1 261.03 1174.1 259.51 1172.89 258.29 1171.36 258.29 1169.85 258.29 1168.62 259.51 1168.62 261.03 1168.62 262.54 1169.85 263.77 1171.36 263.77Z" fill="#000000" opacity="1" stroke-width="1.5" stroke="none"></path><path d="M1180.1 275.6H1174.1C1173.25 275.6 1172.42 275.25 1171.81 274.64 1171.19 274.02 1170.85 273.2 1170.85 272.34 1170.85 271.47 1171.19 270.64 1171.81 270.03 1172.42 269.43 1173.25 269.09 1174.1 269.09H1180.1" stroke="#000000" stroke-width="1.5" stroke-linecap="round" stroke-linejoin="round" opacity="1" fill="none"></path><path d="M1191.06 278.68C1191.32 280.05 1191.03 281.49 1190.28 282.65 1189.51 283.84 1188.32 284.68 1186.95 285.02 1185.6 285.4 1184.16 285.43 1182.77 285.1 1181.38 284.78 1180.12 284.09 1179.07 283.13 1178.81 282.89 1178.63 282.6 1178.54 282.26 1178.46 281.93 1178.46 281.57 1178.58 281.25 1178.68 280.92 1178.88 280.63 1179.16 280.41 1179.43 280.2 1179.76 280.07 1180.1 280.05 1183.05 279.91 1185.91 278.97 1188.32 277.31 1188.6 277.15 1188.89 277.07 1189.2 277.05 1189.51 277.03 1189.8 277.1 1190.07 277.24 1190.34 277.38 1190.58 277.58 1190.76 277.82 1190.93 278.08 1191.03 278.37 1191.06 278.68Z" fill="#000000" opacity="1" stroke-width="1.5" stroke="none"></path><path d="M1191.24 306.78C1203.06 308.32 1211.35 307.82 1222.66 298.74" stroke="#000000" stroke-width="1.5" stroke-linecap="round" stroke-linejoin="round" opacity="1" fill="none"></path><path d="M1193.75 338.98C1186.9 334.36 1175.99 332.99 1167.94 335.04 1162.45 336.59 1156.46 339.5 1151.32 336.93 1149.13 335.68 1147.48 333.66 1146.69 331.27" stroke="#000000" stroke-width="1.5" stroke-linecap="round" stroke-linejoin="round" opacity="1" fill="none"></path><path d="M1192.26 352.86C1194.82 352.86 1196.89 350.79 1196.89 348.24 1196.89 345.68 1194.82 343.61 1192.26 343.61 1189.71 343.61 1187.64 345.68 1187.64 348.24 1187.64 350.79 1189.71 352.86 1192.26 352.86Z" fill="#000000" opacity="1" stroke-width="1.5" stroke="none"></path><path d="M1193.75 338.98C1200.61 334.36 1211.28 332.99 1219.33 335.04 1224.81 336.59 1230.81 339.5 1235.95 336.93 1238.43 335.44 1240.22 333.04 1240.92 330.25 1241.65 327.51 1241.89 324.66 1241.6 321.85 1241.09 315.6 1239.98 309.41 1238.26 303.38" stroke="#000000" stroke-width="1.5" stroke-linecap="round" stroke-linejoin="round" opacity="1" fill="none"></path><path d="M1234.24 475.7L1271.07 476.04" stroke="#000000" stroke-width="1.5" stroke-linecap="round" stroke-linejoin="round" opacity="1" fill="none"></path><path d="M1171.36 494.37L1159.16 412.94" stroke="#000000" stroke-width="1.5" stroke-linecap="round" stroke-linejoin="round" opacity="1" fill="none"></path><path d="M1234.24 475.53C1234.24 475.56 1234.22 475.61 1234.19 475.65 1234.17 475.68 1234.12 475.7 1234.07 475.7 1228.02 475.58 1222.06 477.26 1216.93 480.49V480.49C1184.26 499.8 1158.87 487.52 1158 478.78 1157.97 477.94 1158.15 477.1 1158.55 476.35 1158.92 475.61 1159.51 474.98 1160.21 474.51 1160.23 474.5 1160.26 474.48 1160.26 474.45 1160.28 474.41 1160.3 474.38 1160.28 474.34 1160.28 474.31 1160.26 474.29 1160.24 474.26 1160.23 474.24 1160.19 474.22 1160.16 474.21 1158.84 473.78 1157.64 473.04 1156.66 472.05 1155.69 471.05 1154.98 469.84 1154.57 468.5 1154.28 467.15 1154.37 465.74 1154.85 464.46 1155.33 463.16 1156.17 462.03 1157.28 461.2 1157.3 461.19 1157.31 461.17 1157.33 461.13 1157.33 461.12 1157.35 461.08 1157.33 461.05 1157.33 461.03 1157.33 461 1157.31 460.98 1157.3 460.95 1157.28 460.93 1157.25 460.91 1155.48 459.99 1154.02 458.56 1153.03 456.85L1153.03 456.83C1152.45 455.98 1152.23 454.93 1152.38 453.92 1152.53 452.91 1153.08 451.99 1153.89 451.35 1154.62 450.63 1155.5 450.05 1156.44 449.64H1156.46C1163.65 447.58 1169.48 450.5 1176.67 452.04 1181.56 453.12 1186.58 453.51 1191.58 453.24 1194.15 453.07 1196.89 452.55 1198.43 450.5 1200.66 447.24 1197.75 442.96 1194.49 440.73 1191.46 438.67 1188 437.32 1184.38 436.79V436.79C1180.96 436.28 1176.84 435.93 1175.47 432.85 1174.45 430.45 1176.16 427.54 1178.39 426.34 1180.8 425.26 1183.44 424.78 1186.1 424.97 1201.1 424.8 1219.52 424.8 1234.58 424.63 1234.61 424.63 1234.67 424.64 1234.7 424.68 1234.73 424.71 1234.75 424.75 1234.75 424.8L1234.24 475.53Z" fill="#fd9da6" opacity="1" stroke-width="1.5" stroke="none"></path><path d="M1157.49 461.05C1167.08 466.87 1179.07 467.64 1190.38 466.27" stroke="#000000" stroke-width="1.5" stroke-linecap="round" stroke-linejoin="round" opacity="1" fill="none"></path><path d="M1160.57 474.33C1169.22 478.4 1178.93 479.67 1188.32 477.92" stroke="#000000" stroke-width="1.5" stroke-linecap="round" stroke-linejoin="round" opacity="1" fill="none"></path><path d="M1234.58 424.64L1288.72 424.7" stroke="#000000" stroke-width="1.5" stroke-linecap="round" stroke-linejoin="round" opacity="1" fill="none"></path><path d="M1159.08 366.1C1152.91 372.34 1149.45 380.77 1149.47 389.54 1149.49 398.31 1152.98 406.72 1159.16 412.94" stroke="#000000" stroke-width="1.5" stroke-linecap="round" stroke-linejoin="round" opacity="1" fill="none"></path><path d="M1122.96 440.59L1130.23 452.09" stroke="#000000" stroke-width="1.5" stroke-linecap="round" stroke-linejoin="round" opacity="1" fill="none"></path></g><g><path d="M942.28 1008.11L870.89 1016.71H646.16C646.05 1016.71 645.98 1016.67 645.91 1016.6 645.84 1016.53 645.8 1016.46 645.8 1016.35V690.62C645.8 687.94 646.85 685.38 648.76 683.47 650.64 681.59 653.24 680.5 655.91 680.5H684.44C710.91 686.82 732.83 686.9 767.82 680.5H944.09C946.76 680.5 949.36 681.59 951.24 683.47 953.12 685.38 954.2 687.94 954.2 690.62V960.73L942.28 1008.11Z" fill="#06e018" opacity="1" stroke-width="1.5" stroke="none"></path><path d="M767.86 680.5H684.44V736.48H767.86V680.5Z" fill="#2e9436" opacity="1" stroke-width="1.5" stroke="none"></path><path d="M874.39 736.48H790.97V792.45H874.39V736.48Z" fill="#2e9436" opacity="1" stroke-width="1.5" stroke="none"></path><path d="M767.86 792.45H684.44V848.43H767.86V792.45Z" fill="#2e9436" opacity="1" stroke-width="1.5" stroke="none"></path><path d="M935.78 848.43H852.36V904.4H935.78V848.43Z" fill="#2e9436" opacity="1" stroke-width="1.5" stroke="none"></path><path d="M851.28 904.4H767.86V960.73H851.28V904.4Z" fill="#2e9436" opacity="1" stroke-width="1.5" stroke="none"></path><path d="M870.78 960.73H954.2V1016.35C954.2 1016.46 954.16 1016.53 954.09 1016.6 954.02 1016.67 953.95 1016.71 953.84 1016.71H870.78V960.73Z" fill="#2e9436" opacity="1" stroke-width="1.5" stroke="none"></path><path d="M954.2 736.48H645.8" stroke="#000000" stroke-width="1.5" stroke-linecap="round" stroke-linejoin="round" opacity="1" fill="none"></path><path d="M954.2 792.45H645.8" stroke="#000000" stroke-width="1.5" stroke-linecap="round" stroke-linejoin="round" opacity="1" fill="none"></path><path d="M954.2 848.43H645.8" stroke="#000000" stroke-width="1.5" stroke-linecap="round" stroke-linejoin="round" opacity="1" fill="none"></path><path d="M954.2 904.4H645.8" stroke="#000000" stroke-width="1.5" stroke-linecap="round" stroke-linejoin="round" opacity="1" fill="none"></path><path d="M954.2 960.73H645.8" stroke="#000000" stroke-width="1.5" stroke-linecap="round" stroke-linejoin="round" opacity="1" fill="none"></path></g><g><path d="M294.5 216.41L246.3 148.54" stroke="#000000" stroke-width="1.5" stroke-linecap="round" stroke-linejoin="round" opacity="1" fill="none"></path><path d="M220.2 318.03L137.06 320.04" stroke="#000000" stroke-width="1.5" stroke-linecap="round" stroke-linejoin="round" opacity="1" fill="none"></path><path d="M242.29 261.8L178.43 211.19" stroke="#000000" stroke-width="1.5" stroke-linecap="round" stroke-linejoin="round" opacity="1" fill="none"></path></g><g><path d="M326.2 922.19H379.02L379.19 973.36 326.2 1008.08V922.19Z" fill="#be6640" opacity="1" stroke-width="1.5" stroke="none"></path><path d="M416.71 922.19H469.53V1002.82L416.38 973.36 416.71 922.19Z" fill="#be6640" opacity="1" stroke-width="1.5" stroke="none"></path><path d="M558.06 1018.12C558.54 1011 557.04 1003.87 553.71 997.55 550.41 991.22 545.42 985.94 539.3 982.25 531.07 977.64 521.69 976.65 512.81 973.86 506.03 971.73 500.1 967.54 495.86 961.84 494.47 959.69 492.57 957.93 490.33 956.69 488.09 955.46 485.59 954.8 483.02 954.77V954.77C481.01 954.82 479.02 955.28 477.2 956.13 475.37 956.99 473.74 958.21 472.41 959.72 471.07 961.25 470.09 963.01 469.48 964.94 468.87 966.86 468.66 968.89 468.87 970.9L469.03 973.36H416.38V1017.79L558.06 1018.12V1018.12Z" fill="#05941a" opacity="1" stroke-width="1.5" stroke="none"></path><path d="M553.45 1003.31H417.53" stroke="#000000" stroke-width="1.5" stroke-linecap="round" stroke-linejoin="round" opacity="1" fill="none"></path><path d="M516.76 975.67C510.17 977.81 508.53 988.5 502.11 991.14 498.65 992.62 494.54 991.63 490.92 990.97 487.18 990.12 483.27 990.64 479.89 992.45 478.17 993.41 476.75 994.85 475.85 996.62 474.94 998.38 474.58 1000.37 474.79 1002.33" stroke="#000000" stroke-width="1.5" stroke-linecap="round" stroke-linejoin="round" opacity="1" fill="none"></path><path d="M417.53 984.88C429.21 986.03 439.91 993.11 443.36 1002.16" stroke="#000000" stroke-width="1.5" stroke-linecap="round" stroke-linejoin="round" opacity="1" fill="none"></path><path d="M504.41 973.2C504.07 973.22 503.72 973.3 503.41 973.46 503.1 973.61 502.82 973.82 502.59 974.07 502.36 974.33 502.19 974.65 502.08 974.98 501.96 975.31 501.93 975.65 501.95 976 501.96 976.7 502.24 977.38 502.72 977.91 503.21 978.42 503.87 978.74 504.58 978.79 504.92 978.78 505.27 978.7 505.58 978.53 505.89 978.38 506.17 978.17 506.41 977.92 506.64 977.66 506.8 977.35 506.92 977.02 507.03 976.69 507.08 976.34 507.05 976 507.06 975.63 507.01 975.27 506.9 974.94 506.77 974.6 506.59 974.29 506.34 974.02 506.09 973.76 505.8 973.56 505.47 973.41 505.14 973.26 504.78 973.2 504.41 973.2V973.2Z" fill="#000000" opacity="1" stroke-width="1.5" stroke="none"></path><path d="M495.69 967.77C495.35 967.79 495 967.87 494.69 968.03 494.38 968.18 494.1 968.39 493.87 968.66 493.64 968.9 493.47 969.22 493.36 969.55 493.24 969.87 493.21 970.22 493.22 970.57 493.24 971.27 493.52 971.96 494 972.47 494.49 972.99 495.15 973.31 495.86 973.36 496.2 973.35 496.55 973.26 496.86 973.12 497.17 972.95 497.45 972.74 497.68 972.49 497.91 972.23 498.08 971.92 498.19 971.59 498.31 971.26 498.36 970.91 498.33 970.57 498.29 969.86 498 969.2 497.52 968.69 497.04 968.18 496.38 967.85 495.69 967.77V967.77Z" fill="#000000" opacity="1" stroke-width="1.5" stroke="none"></path><path d="M469.03 973.53C471.93 975.52 475.17 976.97 478.58 977.81" stroke="#000000" stroke-width="1.5" stroke-linecap="round" stroke-linejoin="round" opacity="1" fill="none"></path><path d="M237.5 1018.12C237.03 1011 238.54 1003.87 241.85 997.55 245.16 991.22 250.14 985.94 256.26 982.25 264.49 977.64 273.87 976.65 282.76 973.86 289.54 971.73 295.46 967.54 299.71 961.84 301.09 959.69 303 957.93 305.23 956.69 307.47 955.46 309.99 954.8 312.54 954.77 314.57 954.82 316.54 955.28 318.37 956.13 320.19 956.99 321.82 958.21 323.16 959.72 324.49 961.25 325.49 963.01 326.1 964.94 326.71 966.86 326.91 968.89 326.69 970.9L326.53 973.36H379.19V1017.79L237.5 1018.12V1018.12Z" fill="#05941a" opacity="1" stroke-width="1.5" stroke="none"></path><path d="M242.11 1003.31H378.03" stroke="#000000" stroke-width="1.5" stroke-linecap="round" stroke-linejoin="round" opacity="1" fill="none"></path><path d="M278.81 975.67C285.39 977.81 287.03 988.5 293.45 991.14 296.91 992.62 301.02 991.63 304.64 990.97 308.38 990.12 312.29 990.64 315.67 992.45 317.4 993.41 318.81 994.85 319.72 996.62 320.62 998.38 320.98 1000.37 320.77 1002.33" stroke="#000000" stroke-width="1.5" stroke-linecap="round" stroke-linejoin="round" opacity="1" fill="none"></path><path d="M378.03 984.88C366.35 986.03 355.65 993.11 352.2 1002.16" stroke="#000000" stroke-width="1.5" stroke-linecap="round" stroke-linejoin="round" opacity="1" fill="none"></path><path d="M291.15 973.2C291.49 973.22 291.84 973.3 292.15 973.46 292.47 973.61 292.75 973.82 292.98 974.09 293.21 974.33 293.37 974.65 293.49 974.98 293.6 975.31 293.65 975.65 293.62 976 293.6 976.7 293.32 977.38 292.84 977.91 292.35 978.42 291.69 978.74 290.98 978.79 290.64 978.78 290.29 978.7 289.98 978.53 289.67 978.38 289.39 978.17 289.16 977.92 288.93 977.66 288.76 977.35 288.65 977.02 288.53 976.69 288.5 976.34 288.52 976 288.47 975.63 288.5 975.26 288.61 974.91 288.73 974.56 288.91 974.24 289.16 973.97 289.42 973.71 289.73 973.5 290.06 973.36 290.41 973.23 290.79 973.17 291.15 973.2V973.2Z" fill="#000000" opacity="1" stroke-width="1.5" stroke="none"></path><path d="M299.71 967.77C300.05 967.79 300.4 967.87 300.71 968.03 301.02 968.18 301.3 968.39 301.53 968.66 301.76 968.9 301.93 969.22 302.04 969.55 302.16 969.87 302.21 970.22 302.17 970.57 302.16 971.27 301.88 971.96 301.4 972.47 300.91 972.99 300.25 973.31 299.54 973.36 299.2 973.35 298.85 973.26 298.54 973.12 298.22 972.95 297.95 972.74 297.71 972.49 297.48 972.23 297.32 971.92 297.2 971.59 297.09 971.26 297.06 970.91 297.07 970.57 297.12 969.86 297.4 969.2 297.88 968.69 298.36 968.18 299.01 967.85 299.71 967.77V967.77Z" fill="#000000" opacity="1" stroke-width="1.5" stroke="none"></path><path d="M326.53 973.53C323.63 975.52 320.39 976.97 316.98 977.81" stroke="#000000" stroke-width="1.5" stroke-linecap="round" stroke-linejoin="round" opacity="1" fill="none"></path><path d="M469.53 954.6L416.71 939.79V922.19H469.53V954.6Z" fill="#000000" opacity="1" stroke-width="1.5" stroke="none"></path><path d="M379.02 947.69L326.2 936.67V922.19H379.02V947.69Z" fill="#000000" opacity="1" stroke-width="1.5" stroke="none"></path><path d="M390.71 561.15H482.86V934.69H404.69V661.53C404.69 660.62 404.51 659.72 404.17 658.88 403.82 658.04 403.31 657.28 402.67 656.64 402.03 656 401.27 655.49 400.43 655.14 399.59 654.8 398.69 654.62 397.78 654.62 396.88 654.62 395.97 654.8 395.13 655.14 394.29 655.49 393.54 656 392.89 656.64 392.25 657.28 391.74 658.04 391.4 658.88 391.05 659.72 390.87 660.62 390.87 661.53V934.69H312.71V579.58L348.32 561.15H390.71Z" fill="#639267" opacity="1" stroke-width="1.5" stroke="none"></path><path d="M550.33 439.38L530.2 455.19 511.82 362.37C507.54 334.39 482.69 313.66 453.57 313.66H351.38C325.21 313.66 302.01 330.61 294.77 355.13L259.72 473.61C256.69 484.47 257.86 496.08 263.03 506.12 268.18 516.16 276.93 523.88 287.53 527.74L312.71 536.63V579.58H482.86V541.44C490.28 542.52 497.83 542.09 505.07 540.17 512.33 538.24 519.09 534.85 524.98 530.21L577.58 488.27C577.64 488.22 577.71 488.14 577.76 488.05 577.81 487.97 577.82 487.87 577.84 487.77L584.36 453.65 550.33 439.38Z" fill="#05941a" opacity="1" stroke-width="1.5" stroke="none"></path><path d="M482.86 541.4V403.34" stroke="#000000" stroke-width="1.5" stroke-linecap="round" stroke-linejoin="round" opacity="1" fill="none"></path><path d="M319.29 478.38L343.31 394.78" stroke="#000000" stroke-width="1.5" stroke-linecap="round" stroke-linejoin="round" opacity="1" fill="none"></path><path d="M400.91 512.28L319.29 478.38 308.76 488.91" stroke="#000000" stroke-width="1.5" stroke-linecap="round" stroke-linejoin="round" opacity="1" fill="none"></path><path d="M308.26 534.66L384.62 565.76" stroke="#000000" stroke-width="1.5" stroke-linecap="round" stroke-linejoin="round" opacity="1" fill="none"></path><path d="M402.22 231.38C390.44 231.38 379.14 236.07 370.81 244.4 362.48 252.72 357.79 264.03 357.79 275.81 357.79 287.59 362.48 298.9 370.81 307.22 379.14 315.57 390.44 320.24 402.22 320.24 413.25 320.31 423.9 316.17 432.01 308.72 438.67 302.71 443.36 294.82 445.44 286.08 447.53 277.36 446.92 268.19 443.69 259.81 440.47 251.44 434.77 244.25 427.37 239.16 419.96 234.08 411.21 231.38 402.22 231.38V231.38Z" fill="#be6640" opacity="1" stroke-width="1.5" stroke="none"></path><path d="M400.41 351.67L367.34 313.66H433.33L400.41 351.67Z" fill="#be6640" opacity="1" stroke-width="1.5" stroke="none"></path><path d="M386.59 313.66H433.33L419.17 329.95H418.35C409.53 329.93 400.96 326.99 394 321.56 391.17 319.28 388.66 316.64 386.59 313.66V313.66Z" fill="#000000" opacity="1" stroke-width="1.5" stroke="none"></path><path d="M418.35 271.86H426.41C427.76 271.86 429.06 272.4 430.02 273.36 430.97 274.31 431.52 275.61 431.52 276.96 431.52 278.31 430.97 279.61 430.02 280.56 429.06 281.52 427.76 282.06 426.41 282.06H418.35" stroke="#000000" stroke-width="1.5" stroke-linecap="round" stroke-linejoin="round" opacity="1" fill="none"></path><path d="M370.63 306.75C363.62 299.55 359.23 290.24 358.12 280.25H358.45C367.67 282.23 375.57 288.15 382.97 294.07 388.32 289.24 395.35 286.7 402.55 287 409.74 286.83 416.72 289.35 422.14 294.07 429.54 288.15 437.27 281.9 446.49 280.25 445.4 291.2 440.3 301.36 432.14 308.75 424 316.14 413.4 320.24 402.39 320.24 396.46 320.22 390.61 319.02 385.14 316.7 379.7 314.4 374.76 311.01 370.63 306.75Z" fill="#6d321d" opacity="1" stroke-width="1.5" stroke="none"></path><path d="M408.94 291.92C412.72 296.69 416.87 300.43 422.79 299.77" stroke="#000000" stroke-width="1.5" stroke-linecap="round" stroke-linejoin="round" opacity="1" fill="none"></path><path d="M415.39 259.85C414.57 259.85 413.76 260.18 413.18 260.77 412.59 261.34 412.26 262.15 412.26 262.97 412.25 263.39 412.33 263.8 412.48 264.19 412.62 264.57 412.85 264.92 413.15 265.21 413.45 265.51 413.79 265.74 414.17 265.89 414.57 266.05 414.98 266.12 415.39 266.1 416.21 266.1 417.02 265.77 417.59 265.18 418.19 264.6 418.52 263.8 418.52 262.97 418.52 262.15 418.19 261.34 417.59 260.77 417.02 260.18 416.21 259.85 415.39 259.85Z" fill="#000000" opacity="1" stroke-width="1.5" stroke="none"></path><path d="M428.06 259.85C427.24 259.85 426.43 260.18 425.85 260.77 425.26 261.34 424.93 262.15 424.93 262.97 424.93 263.8 425.26 264.6 425.85 265.18 426.43 265.77 427.24 266.1 428.06 266.1 428.88 266.1 429.69 265.77 430.26 265.18 430.86 264.6 431.19 263.8 431.19 262.97 431.19 262.56 431.1 262.15 430.96 261.77 430.79 261.39 430.56 261.05 430.26 260.77 429.99 260.47 429.64 260.24 429.26 260.09 428.88 259.93 428.47 259.85 428.06 259.85Z" fill="#000000" opacity="1" stroke-width="1.5" stroke="none"></path><path d="M425.15 237.75C418.25 233.53 410.3 231.33 402.22 231.38 395.08 231.36 388.06 233.09 381.72 236.38 375.39 239.67 369.94 244.44 365.86 250.3L365.91 250.34C363.57 253.64 361.69 257.28 360.34 261.1 364.13 259.6 368.34 259.65 372.09 261.25 375.83 262.84 378.79 265.84 380.32 269.61 383.51 266.2 385.28 261.71 385.28 257.05 385.28 256.9 385.26 256.77 385.26 256.62 400.46 255.6 414.71 248.85 425.15 237.75Z" fill="#6d321d" opacity="1" stroke-width="1.5" stroke="none"></path><path d="M367.01 313.66L359.6 349.86 387.91 337.85" stroke="#000000" stroke-width="1.5" stroke-linecap="round" stroke-linejoin="round" opacity="1" fill="none"></path><path d="M602.32 461.92C602.21 460.24 601.57 458.65 600.47 457.36 599.36 456.08 597.88 455.19 596.24 454.83 596.19 454.81 596.15 454.8 596.12 454.76 596.1 454.73 596.07 454.7 596.07 454.65 596.07 454.6 596.09 454.57 596.1 454.52 596.14 454.48 596.17 454.45 596.2 454.43 597.78 453.83 599.1 452.71 599.97 451.26 600.83 449.81 601.21 448.13 601.01 446.45 600.91 444.79 600.25 443.2 599.18 441.93 598.1 440.65 596.63 439.76 595 439.38 594.95 439.36 594.9 439.35 594.87 439.31 594.84 439.26 594.82 439.21 594.82 439.16 594.82 439.11 594.84 439.07 594.85 439.03 594.89 438.98 594.92 438.95 594.97 438.93 596.52 438.31 597.82 437.19 598.67 435.76 599.53 434.33 599.89 432.65 599.69 430.99 599.53 428.88 598.54 426.92 596.93 425.52 595.33 424.14 593.26 423.45 591.14 423.58L583.73 424.07 552.14 426.54C550.03 426.71 548.07 427.69 546.67 429.31 545.29 430.9 544.6 432.99 544.73 435.1 544.86 436.89 545.6 438.59 546.82 439.9 548.05 441.22 549.7 442.09 551.48 442.34 549.75 442.87 548.27 443.97 547.28 445.47 546.29 446.98 545.85 448.77 546.05 450.57 546.34 452.3 547.13 453.91 548.33 455.19 549.54 456.49 551.08 457.4 552.79 457.81 551.07 458.33 549.58 459.44 548.6 460.93 547.61 462.45 547.17 464.24 547.36 466.04 547.53 468.14 548.51 470.12 550.13 471.5 551.72 472.88 553.81 473.57 555.92 473.44L578.56 471.73 578.5 473.42 577.63 487.74C577.63 487.79 577.64 487.82 577.66 487.86 577.67 487.89 577.71 487.92 577.76 487.94 577.79 487.96 577.82 487.97 577.87 487.96 577.9 487.96 577.94 487.94 577.97 487.91L597.45 470.1 598.64 469.2C599.84 468.42 600.83 467.34 601.47 466.07 602.13 464.79 602.42 463.35 602.32 461.92V461.92Z" fill="#be6640" opacity="1" stroke-width="1.5" stroke="none"></path><path d="M433.33 313.66L440.73 349.86 412.26 337.85" stroke="#000000" stroke-width="1.5" stroke-linecap="round" stroke-linejoin="round" opacity="1" fill="none"></path><path d="M400.41 351.67V387.38" stroke="#000000" stroke-width="1.5" stroke-linecap="round" stroke-linejoin="round" opacity="1" fill="none"></path><path d="M410.45 354.47C409.63 354.47 408.82 354.8 408.25 355.39 407.65 355.96 407.33 356.77 407.33 357.59 407.31 358 407.39 358.42 407.54 358.81 407.69 359.19 407.92 359.54 408.21 359.83 408.51 360.13 408.86 360.36 409.23 360.51 409.63 360.67 410.04 360.74 410.45 360.72 411.27 360.72 412.08 360.39 412.66 359.8 413.25 359.22 413.58 358.42 413.58 357.59 413.58 356.77 413.25 355.96 412.66 355.39 412.08 354.8 411.27 354.47 410.45 354.47Z" fill="#000000" opacity="1" stroke-width="1.5" stroke="none"></path><path d="M410.45 367.3C409.84 367.3 409.23 367.48 408.72 367.83 408.2 368.17 407.8 368.67 407.57 369.23 407.33 369.8 407.26 370.43 407.39 371.04 407.51 371.65 407.8 372.21 408.25 372.63 408.67 373.08 409.23 373.37 409.84 373.49 410.45 373.62 411.08 373.56 411.65 373.33 412.23 373.08 412.71 372.68 413.05 372.17 413.4 371.65 413.58 371.05 413.58 370.43 413.53 369.62 413.18 368.85 412.61 368.27 412.03 367.7 411.26 367.35 410.45 367.3V367.3Z" fill="#000000" opacity="1" stroke-width="1.5" stroke="none"></path><path d="M410.45 380.3C409.63 380.3 408.82 380.63 408.25 381.22 407.65 381.8 407.33 382.61 407.33 383.43 407.31 383.84 407.39 384.25 407.54 384.65 407.69 385.03 407.92 385.37 408.21 385.67 408.51 385.96 408.86 386.19 409.23 386.34 409.63 386.51 410.04 386.57 410.45 386.56 411.27 386.56 412.08 386.23 412.66 385.63 413.25 385.06 413.58 384.25 413.58 383.43 413.58 382.61 413.25 381.8 412.66 381.22 412.08 380.63 411.27 380.3 410.45 380.3Z" fill="#000000" opacity="1" stroke-width="1.5" stroke="none"></path><path d="M581.76 455.5L552.79 457.81" stroke="#000000" stroke-width="1.5" stroke-linecap="round" stroke-linejoin="round" opacity="1" fill="none"></path><path d="M551.48 442.34L580.6 440.04" stroke="#000000" stroke-width="1.5" stroke-linecap="round" stroke-linejoin="round" opacity="1" fill="none"></path><path d="M578.56 471.73L585.54 470.81" stroke="#000000" stroke-width="1.5" stroke-linecap="round" stroke-linejoin="round" opacity="1" fill="none"></path><path d="M449.78 575.96L452.41 573.66C457.52 572.18 462.29 567.9 462.78 562.47L465.91 563.29C467.87 563.77 469.94 563.52 471.75 562.63 473.56 561.73 474.97 560.21 475.78 558.35 476.31 557.17 476.55 555.9 476.52 554.6 476.49 553.32 476.18 552.05 475.6 550.9 475.01 549.75 474.18 548.74 473.16 547.95 472.14 547.16 470.96 546.62 469.69 546.34L410.17 532.78C410.01 532.73 409.84 532.62 409.73 532.47 409.61 532.32 409.56 532.14 409.56 531.96 409.56 531.76 409.65 531.6 409.76 531.45 409.88 531.3 410.04 531.2 410.22 531.17L438.1 526.43C439.28 526.23 440.42 525.8 441.45 525.18 442.47 524.54 443.36 523.71 444.07 522.73 444.76 521.75 445.27 520.65 445.55 519.47 445.82 518.3 445.86 517.08 445.67 515.9 445.47 514.71 445.04 513.58 444.42 512.54 443.77 511.52 442.95 510.63 441.96 509.94 440.99 509.23 439.89 508.72 438.71 508.44 437.54 508.18 436.32 508.13 435.14 508.33L400.91 512.28 384.62 565.76C399.92 578.1 414.24 584.85 433.98 584.19 437.24 584.24 440.48 583.68 443.53 582.54 445.01 582 446.33 581.11 447.41 579.98 448.5 578.84 449.3 577.46 449.78 575.96Z" fill="#be6640" opacity="1" stroke-width="1.5" stroke="none"></path><path d="M415.29 568.69C423.02 570.33 424.39 571.09 432.29 572.24 437.55 572.9 447.31 575.14 452.41 573.66" stroke="#000000" stroke-width="1.5" stroke-linecap="round" stroke-linejoin="round" opacity="1" fill="none"></path><path d="M462.78 562.47L419.01 552.59" stroke="#000000" stroke-width="1.5" stroke-linecap="round" stroke-linejoin="round" opacity="1" fill="none"></path><path d="M530.08 455.18L510.17 470.81" stroke="#000000" stroke-width="1.5" stroke-linecap="round" stroke-linejoin="round" opacity="1" fill="none"></path></g><g><path d="M578.49 341.62C608.67 341.62 633.13 317.16 633.13 286.98 633.13 256.8 608.67 232.33 578.49 232.33 548.31 232.33 523.85 256.8 523.85 286.98 523.85 317.16 548.31 341.62 578.49 341.62Z" fill="#06e018" opacity="1" stroke-width="1.5" stroke="none"></path><path d="M578.49 329.19C601.81 329.19 620.71 310.29 620.71 286.98 620.71 263.66 601.81 244.76 578.49 244.76 555.18 244.76 536.27 263.66 536.27 286.98 536.27 310.29 555.18 329.19 578.49 329.19Z" stroke="#000000" stroke-width="1.5" stroke-linecap="round" stroke-linejoin="round" opacity="1" fill="none"></path><path d="M591.4 270.33C588.33 267.63 584.39 266.13 580.3 266.11 570.17 266.11 561.97 275.4 561.97 286.98 561.97 298.56 570.17 307.84 580.3 307.84 584.39 307.8 588.32 306.3 591.4 303.62" stroke="#000000" stroke-width="1.5" stroke-linecap="round" stroke-linejoin="round" opacity="1" fill="none"></path><path d="M559.19 282.03H583.2" stroke="#000000" stroke-width="1.5" stroke-linecap="round" stroke-linejoin="round" opacity="1" fill="none"></path><path d="M559.19 291.08H583.2" stroke="#000000" stroke-width="1.5" stroke-linecap="round" stroke-linejoin="round" opacity="1" fill="none"></path></g><g><path d="M1062.54 288.78C1062.54 319.17 1039.23 342.31 1008.84 342.31 999.69 342.31 991.09 341.59 983.5 337.64 975.63 333.57 968.87 327.64 963.78 320.39 958.7 313.14 955.44 304.77 954.28 295.98 953.13 287.2 954.12 278.26 957.15 269.93 960.17 261.61 965.17 254.14 971.72 248.17 978.26 242.19 986.15 237.88 994.71 235.6 1003.27 233.31 1012.26 233.15 1020.91 235.09 1029.55 237.02 1037.6 241.02 1044.37 246.74 1051.15 252.46 1056.43 259.73 1059.79 267.92 1062.42 274.35 1062.54 281.39 1062.54 288.78Z" fill="#06e018" opacity="1" stroke-width="1.5" stroke="none"></path><path d="M1063.88 288.78C1063.88 298.21 1061.47 307.49 1056.85 315.71 1052.24 323.93 1045.59 330.83 1037.54 335.75 1029.48 340.67 1020.32 343.43 1010.89 343.79 1001.46 344.14 992.11 342.06 983.72 337.76 983.68 337.75 983.67 337.73 983.65 337.71 983.63 337.68 983.63 337.66 983.62 337.63 983.62 337.61 983.62 337.58 983.63 337.56 983.65 337.53 983.65 337.51 983.68 337.49L1059.6 268.09C1059.64 268.07 1059.65 268.05 1059.69 268.05 1059.7 268.04 1059.74 268.04 1059.76 268.05 1059.79 268.05 1059.81 268.07 1059.84 268.09 1059.86 268.1 1059.87 268.12 1059.87 268.15 1062.52 274.7 1063.88 281.71 1063.88 288.78V288.78Z" fill="#2e9436" opacity="1" stroke-width="1.5" stroke="none"></path><path d="M1008.84 330.73C1032.02 330.73 1050.79 311.95 1050.79 288.78 1050.79 265.62 1032.02 246.82 1008.84 246.82 985.67 246.82 966.89 265.62 966.89 288.78 966.89 311.95 985.67 330.73 1008.84 330.73Z" stroke="#000000" stroke-width="1.5" stroke-linecap="round" stroke-linejoin="round" opacity="1" fill="none"></path><path d="M1029.15 274.35L995.08 274.68C994.17 274.7 993.27 274.88 992.43 275.25 991.59 275.6 990.82 276.12 990.18 276.78 988.89 278.1 988.18 279.88 988.2 281.73 988.22 283.57 988.97 285.34 990.3 286.63 991.62 287.92 993.4 288.64 995.25 288.61L1022.27 288.27C1024.11 288.26 1025.89 288.96 1027.22 290.25 1028.54 291.55 1029.3 293.31 1029.31 295.15 1029.33 297 1028.63 298.78 1027.33 300.1 1026.04 301.43 1024.28 302.19 1022.43 302.2H1021.93L988.37 302.54" stroke="#000000" stroke-width="1.5" stroke-linecap="round" stroke-linejoin="round" opacity="1" fill="none"></path><path d="M1009.01 312.77L1008.67 264.78" stroke="#000000" stroke-width="1.5" stroke-linecap="round" stroke-linejoin="round" opacity="1" fill="none"></path></g></svg>